# xmcd
#
# Track frame offsets: 
#        150
#        17380
#        29310
#        45586
#        63936
#        78601
#        94213
#        108310
#        124923
#        145247
#        164801
#        187911
#        204244
#        221503
#        234276
#
# Disc length: 3442 seconds
#
# Revision: 0
# Processed by: cddbd v1.5.1PL2 Copyright (c) Steve Scherf et al.
# Submitted via: ExactAudioCopy v0.95b1
#
DISCID=c60d700f
DTITLE=Various Artist - Ισως φταινε τα τραγουδια cd1
DYEAR=1999
DGENRE=Rock Blues
TTITLE0=Χάρης και Πάνος Κατσιμίχα - Του έρωτα
TTITLE1=Φοίβος Δεληβοριάς - Θέλω να σε ξεπεράσω
TTITLE2=Ορφέας Περίδης - Φωτοβολίδα
TTITLE3=Διονύσης Τσακνής - Φτιάξε καρδιά μου το δικό σου παραμύθι
TTITLE4=Βασίλης Λέκκας - Τι είναι αυτό που σε φοβίζει
TTITLE5=Τάνια Τσανακλίδου, Κώστας Θωμαΐδης - Ταραντέλα
TTITLE6=Μελίνα Τανάγρη - Μελίνα, απ' το μέλι
TTITLE7=Χάρης και Πάνος Κατσιμίχα - Έλα στ' όνειρό μου
TTITLE8=Φοίβος Δεληβοριάς - Η μπόσα νόβα του Ησαΐα
TTITLE9=Αντώνης Βαρδής - Δεν θα με ξεχάσεις
TTITLE10=Κώστας Λειβαδάς - Κάθε μπαλκόνι έχει άλλη θέα
TTITLE11=Χάρης και Πάνος Κατσιμίχα - Γυρίζω τις πλάτες μου στο μέλλον
TTITLE12=Χορωδία - Πρωϊνό τσιγάρο
TTITLE13=Έλλη Πασπαλά - Canzone Arrabbiata
TTITLE14=Φίλιππος Τσεμπερούλης - 7:15 a.m - Voice
EXTD=
EXTT0=
EXTT1=
EXTT2=
EXTT3=
EXTT4=
EXTT5=
EXTT6=
EXTT7=
EXTT8=
EXTT9=
EXTT10=
EXTT11=
EXTT12=
EXTT13=
EXTT14=
PLAYORDER=
